<?xml version="1.0" standalone="no"?>
<!DOCTYPE svg PUBLIC "-//W3C//DTD SVG 20010904//EN"
 "http://www.w3.org/TR/2001/REC-SVG-20010904/DTD/svg10.dtd">
<svg version="1.0" xmlns="http://www.w3.org/2000/svg"
 width="256.000000pt" height="256.000000pt" viewBox="0 0 256.000000 256.000000"
 preserveAspectRatio="xMidYMid meet">

<g transform="translate(0.000000,256.000000) scale(0.100000,-0.100000)"
fill="#000000" stroke="none">
<path d="M578 1933 c-15 -2 -36 -14 -45 -27 -10 -12 -33 -33 -50 -46 -18 -13
-33 -32 -33 -41 0 -12 -23 -31 -65 -54 -36 -20 -65 -39 -65 -41 0 -3 21 -14
46 -25 l45 -21 69 21 c92 28 138 28 150 -1 6 -13 14 -30 19 -38 16 -26 81
-269 81 -302 0 -19 17 -61 44 -107 77 -131 96 -181 111 -301 15 -108 14 -130
-6 -197 -8 -24 -17 -33 -42 -38 -53 -11 -249 -76 -244 -81 2 -2 42 5 88 16
236 56 476 81 774 81 225 0 439 -19 595 -51 52 -10 96 -18 98 -15 4 3 -87 32
-168 53 l-35 9 3 64 c2 35 8 82 13 104 10 36 9 41 -12 55 -67 44 -108 81 -143
132 l-39 57 13 105 c7 58 10 125 7 150 l-6 45 37 -16 c21 -9 68 -16 108 -17
61 0 77 3 111 26 71 47 108 170 73 239 -33 63 -97 109 -152 109 -43 -1 -161
-34 -152 -43 4 -4 45 -7 91 -7 92 0 128 -12 162 -56 46 -58 15 -159 -59 -197
-59 -30 -151 -2 -259 78 -75 54 -145 69 -281 59 -402 -29 -623 17 -676 144
-17 41 -88 109 -131 124 -23 8 -32 17 -30 31 2 22 -6 26 -45 20z m949 -628
c20 -21 40 -59 53 -103 26 -86 58 -125 179 -216 53 -40 102 -80 109 -89 16
-19 27 -127 15 -143 -6 -8 -32 -7 -93 3 -144 24 -512 28 -674 8 -76 -9 -143
-18 -150 -21 -14 -5 -11 249 5 344 7 45 6 68 -2 84 -10 19 -9 20 7 13 67 -29
131 -12 279 72 182 103 215 109 272 48z"/>
</g>
</svg>
